<svg xmlns="http://www.w3.org/2000/svg" viewBox="0 0 96 96" role="img" aria-label="Sanketra icon">
  <rect width="96" height="96" rx="18" fill="#0F0E14"/>
  <path d="M56.6 24.5c-4-2.4-9.8-3-15-1.4-7 2.1-11.2 7.1-11.2 13.1 0 7.2 5.8 10.4 14.7 13 7 2 10 3.5 10 7.5 0 3.8-3.4 6.4-8.9 6.4-5 0-10.1-1.9-14.2-5.1l-4.4 8.2c4.7 3.9 11.6 6.2 18.8 6.2 11.5 0 19.3-6.4 19.3-16.1 0-7.8-5.1-11.6-15.2-14.4-7.4-2.1-9.7-3.5-9.7-6.4 0-3.1 2.8-5.2 7.1-5.2 3.6 0 7.1 1.1 10.5 3.3l-1.8-9.1Z" fill="#E8B339"/>
  <path d="M59.1 20h9.8l-7.6 21.2h-7.8L59.1 20Z" fill="#E8B339" opacity=".72"/>
</svg>
